<svg width="30" height="31" viewBox="0 0 30 31" fill="none" xmlns="http://www.w3.org/2000/svg">
<path d="M24.6875 5.50001C24.6875 5.13963 24.4809 4.81115 24.1561 4.65504C23.8313 4.49892 23.4458 4.54282 23.1643 4.76794L10.6643 14.7679C10.442 14.9459 10.3125 15.2152 10.3125 15.5C10.3125 15.7848 10.442 16.0542 10.6643 16.2321L23.1643 26.2321C23.4458 26.4572 23.8313 26.5011 24.1561 26.345C24.4809 26.1889 24.6875 25.8604 24.6875 25.5V5.50001ZM22.8125 23.5494L12.7507 15.5L22.8125 7.45059V23.5494Z" fill="#F1F1F1" fill-opacity="0.5"/>
<path d="M7.1875 6.75C7.1875 6.23223 6.76777 5.8125 6.25 5.8125C5.73223 5.8125 5.3125 6.23223 5.3125 6.75V24.25C5.3125 24.7678 5.73223 25.1875 6.25 25.1875C6.76777 25.1875 7.1875 24.7678 7.1875 24.25V6.75Z" fill="#F1F1F1" fill-opacity="0.5"/>
<path d="M12.7507 15.5L22.8125 23.5494V7.45059L12.7507 15.5Z" fill="#F1F1F1" fill-opacity="0.5"/>
</svg>
