<svg width="30" height="31" viewBox="0 0 30 31" fill="none" xmlns="http://www.w3.org/2000/svg">
<g clip-path="url(#clip0_2_486)">
<path d="M21.9129 1.08709C21.5468 0.720971 20.9532 0.720971 20.5871 1.08709C20.221 1.4532 20.221 2.0468 20.5871 2.41291L23.9867 5.8125H8.75C7.17528 5.8125 5.66505 6.43806 4.55155 7.55155C3.43806 8.66505 2.8125 10.1753 2.8125 11.75V14.25C2.8125 14.7678 3.23223 15.1875 3.75 15.1875C4.26777 15.1875 4.6875 14.7678 4.6875 14.25V11.75C4.6875 10.6726 5.11551 9.63925 5.87738 8.87738C6.63925 8.11551 7.67256 7.6875 8.75 7.6875H23.9867L20.5871 11.0871C20.221 11.4532 20.221 12.0468 20.5871 12.4129C20.9532 12.779 21.5468 12.779 21.9129 12.4129L26.9129 7.41291C27.096 7.22985 27.1875 6.98993 27.1875 6.75C27.1875 6.62288 27.1622 6.50168 27.1164 6.39114C27.0706 6.28057 27.0028 6.17697 26.9129 6.08709L21.9129 1.08709Z" fill="#FCFCFC"/>
<path d="M9.41291 18.5871C9.77903 18.9532 9.77903 19.5468 9.41291 19.9129L6.01333 23.3125H21.25C22.3274 23.3125 23.3608 22.8845 24.1226 22.1226C24.8845 21.3608 25.3125 20.3274 25.3125 19.25V16.75C25.3125 16.2322 25.7322 15.8125 26.25 15.8125C26.7678 15.8125 27.1875 16.2322 27.1875 16.75V19.25C27.1875 20.8247 26.5619 22.3349 25.4484 23.4484C24.3349 24.5619 22.8247 25.1875 21.25 25.1875H6.01333L9.41291 28.5871C9.77903 28.9532 9.77903 29.5468 9.41291 29.9129C9.0468 30.279 8.4532 30.279 8.08709 29.9129L3.08709 24.9129C2.90403 24.7299 2.8125 24.4899 2.8125 24.25C2.8125 24.1229 2.8378 24.0017 2.88364 23.8911C2.92939 23.7806 2.9972 23.677 3.08709 23.5871L8.08709 18.5871C8.4532 18.221 9.0468 18.221 9.41291 18.5871Z" fill="#FCFCFC"/>
</g>
<defs>
<clipPath id="clip0_2_486">
<rect width="30" height="30" fill="white" transform="translate(0 0.5)"/>
</clipPath>
</defs>
</svg>
