<svg width="30" height="31" viewBox="0 0 30 31" fill="none" xmlns="http://www.w3.org/2000/svg">
<path d="M5.3125 5.50001C5.3125 5.13963 5.51907 4.81115 5.84389 4.65504C6.1687 4.49892 6.55424 4.54282 6.83565 4.76794L19.3357 14.7679C19.558 14.9459 19.6875 15.2152 19.6875 15.5C19.6875 15.7848 19.558 16.0542 19.3357 16.2321L6.83565 26.2321C6.55424 26.4572 6.1687 26.5011 5.84389 26.345C5.51907 26.1889 5.3125 25.8604 5.3125 25.5V5.50001ZM7.1875 23.5494L17.2493 15.5L7.1875 7.45059V23.5494Z" fill="#F1F1F1" fill-opacity="0.5"/>
<path d="M22.8125 6.75C22.8125 6.23223 23.2322 5.8125 23.75 5.8125C24.2678 5.8125 24.6875 6.23223 24.6875 6.75V24.25C24.6875 24.7678 24.2678 25.1875 23.75 25.1875C23.2322 25.1875 22.8125 24.7678 22.8125 24.25V6.75Z" fill="#F1F1F1" fill-opacity="0.5"/>
<path d="M17.2493 15.5L7.1875 23.5494V7.45059L17.2493 15.5Z" fill="#F1F1F1" fill-opacity="0.5"/>
</svg>
